<svg xmlns="http://www.w3.org/2000/svg" viewBox="0 0 512 288"><defs><style>.cls-1{fill:#20222e;}.cls-2{fill:#591522;}.cls-3{fill:#ba9692;}.cls-4{fill:#c99;}.cls-5{fill:#930;}.cls-10,.cls-6{fill:#fddbd1;}.cls-7{fill:#b89792;}.cls-8{fill:#535160;}.cls-15,.cls-9{fill:#fc6f18;}.cls-10,.cls-11,.cls-12,.cls-13,.cls-14,.cls-15,.cls-18{stroke:#000;stroke-miterlimit:10;}.cls-11{fill:none;}.cls-12{fill:#c1acd3;}.cls-13{fill:#9476ac;}.cls-16{fill:#74000d;}.cls-17,.cls-19{fill:#333;}.cls-18{fill:#ccc;}.cls-19{opacity:0.6;}.cls-20{fill:#b99893;opacity:0.59;}</style></defs><title>pain</title><g id="Layer_1_copy_3" data-name="Layer 1 copy 3"><polygon class="cls-1" points="57.83 288 0 288 0 260.65 48.83 263.87 57.83 288"/><polygon class="cls-1" points="453.83 288 512 260.65 512 288 453.83 288"/><path class="cls-2" d="M57.83,288S12.24,283.15,0,260.65,0,189.3,0,189.3s52.05-22.5,79.69-25.08,73.93,51.43,73.93,51.43l-12.86,37.29S148.47,288,142.05,288Z"/><path class="cls-2" d="M368.33,288l6.43-36.35-3.21-48.85L414,158.44s98,19.28,98,28.28v73.93S486,283.2,453.83,288,368.33,288,368.33,288Z"/><path class="cls-3" d="M345.83,288.08s28.93-31.93,28.93-36.43S368.33,288,368.33,288Z"/><path class="cls-4" d="M142.05,288a68.14,68.14,0,0,0-1.29-35.06l28.93,35.14Z"/></g><g id="Layer_1_copy_2" data-name="Layer 1 copy 2"><polygon class="cls-5" points="373.47 252.94 368.97 288 388.26 288 403.69 240.72 416.55 288 425.55 209.87 439.31 246.51 430.47 164.68 368.97 220.8 373.47 252.94"/><polygon class="cls-5" points="141.23 252.94 145.73 288 126.44 288 111.01 240.72 98.16 288 89.16 209.87 75.39 246.51 84.23 164.68 145.73 220.8 141.23 252.94"/><path class="cls-6" d="M431.33,65.87l-21.86,112.5s6.43,8.35,14.79,0,32.79-63.65,32.79-63.65S459,71,450.62,62.65,432.92,57.71,431.33,65.87Z"/><path class="cls-7" d="M436.47,106.37,425.55,148.8s14.78-20.58,14.78-25.08S436.47,106.37,436.47,106.37Z"/><path class="cls-8" d="M440.33,38.87s10.93-.65,10.93,2.57S413.33,198.3,413.33,198.3s-9.64.64-9.64-4.5S440.33,38.87,440.33,38.87Z"/><path class="cls-7" d="M446.12,99.3l-5.79-10.93,5.79-20.57S451.26,99.3,446.12,99.3Z"/><rect class="cls-8" x="445.37" y="72.02" width="10.54" height="5.99" rx="2.61" transform="translate(-0.21 148.75) rotate(-18.74)"/><rect class="cls-8" x="425.21" y="161.68" width="10.54" height="5.99" rx="2.61" transform="translate(681.9 550.96) rotate(-143.99)"/><rect class="cls-8" x="434.04" y="144.15" width="10.54" height="5.99" rx="2.61" transform="translate(148.86 -213.8) rotate(32.66)"/><rect class="cls-8" x="443.13" y="127.36" width="10.54" height="5.99" rx="2.61" transform="translate(125.25 -206.74) rotate(30)"/><rect class="cls-8" x="447.16" y="106.19" width="10.54" height="5.99" rx="2.61" transform="translate(32.1 -90.66) rotate(11.86)"/><rect class="cls-8" x="447.16" y="89.01" width="10.54" height="5.99" rx="2.61"/><path class="cls-6" d="M82.92,66.87l21.86,112.5s-6.43,8.35-14.79,0S57.2,115.72,57.2,115.72,55.28,72,63.63,63.65,81.33,58.71,82.92,66.87Z"/><path class="cls-7" d="M77.78,107.37,88.7,149.8s-14.78-20.58-14.78-25.08S77.78,107.37,77.78,107.37Z"/><path class="cls-8" d="M73.92,39.87S63,39.22,63,42.44,100.92,199.3,100.92,199.3s9.64.64,9.64-4.5S73.92,39.87,73.92,39.87Z"/><path class="cls-7" d="M68.13,100.3l5.79-10.93L68.13,68.8S63,100.3,68.13,100.3Z"/><rect class="cls-8" x="58.35" y="73.02" width="10.54" height="5.99" rx="2.61" transform="translate(99.44 168.44) rotate(-161.26)"/><rect class="cls-8" x="78.51" y="162.68" width="10.54" height="5.99" rx="2.61" transform="translate(-81.39 80.9) rotate(-36.01)"/><rect class="cls-8" x="69.67" y="145.15" width="10.54" height="5.99" rx="2.61" transform="translate(217.98 232.42) rotate(147.34)"/><rect class="cls-8" x="60.58" y="128.36" width="10.54" height="5.99" rx="2.61" transform="translate(188.55 212.2) rotate(150)"/><polygon class="cls-9" points="430.86 168.66 424.26 178.37 439.31 246.51 430.86 168.66"/><rect class="cls-8" x="56.55" y="107.19" width="10.54" height="5.99" rx="2.61" transform="translate(144.97 205.32) rotate(168.14)"/><rect class="cls-8" x="56.55" y="90.01" width="10.54" height="5.99" rx="2.61" transform="translate(123.64 186.02) rotate(-180)"/></g><g id="Layer_1_copy" data-name="Layer 1 copy"><path class="cls-10" d="M93.85,64.28l18.32,129.21s11,46.85,58.7,94.51H345.4s72.4-60.15,71.73-221.94C417.13,66.06,223.91,97.91,93.85,64.28Z"/><path class="cls-11" d="M205.59,270.51s37.6-15.43,45.31-7.71S275,260.64,275,260.64s28,9.87,34.71,9.87"/><path class="cls-11" d="M231.62,104.66c.53,2.85,12.85,6.36,10.34,29.78"/><path class="cls-7" d="M235.26,232.8s6-9.43,15.86-4.72,19.28-1.32,19.28-1.32,3.64-1.92,8.57,3-21.32,18.87-21.32,18.87S240,237.51,235.26,232.8Z"/><path class="cls-11" d="M128.55,89.22s66.85-9,90.42,25.72"/><path class="cls-12" d="M126.52,95s61.92-5.23,82.17,27.55l-41.09,2S143.87,128.77,126.52,95Z"/><path class="cls-12" d="M136.26,95.31s-5.19,24.27,21.19,27.66,42.77,0,42.77,0,6-4.32,3.61-6.76S195.83,97.25,136.26,95.31Z"/><path class="cls-12" d="M142.26,94.63s-2.8,16.89,4.83,24.52,47,4.11,47,4.11,6.59-9.79,4.63-11.75S188.12,98,142.26,94.63Z"/><path class="cls-12" d="M150,95.31s-4.26,20,14.16,27.26,28-13.63,28-13.63S194.08,102,150,95.31Z"/><path class="cls-12" d="M157.69,97.81s-3,17.84,12.43,19.56,17.47-12.8,17.47-12.8S169.69,95.83,157.69,97.81Z"/><path class="cls-13" d="M167.15,97.81s-7.11,5.46.45,11.89c6.16,5.24,12.78-3.38,12.78-8.14Z"/><circle class="cls-14" cx="172.11" cy="103.54" r="2.98"/><path class="cls-15" d="M180.67,78.35s35.9,16.07,53,16.07l5.43-3.6-9.61,6.39s-51.2-8.3-72.56-21.58Z"/><path class="cls-8" d="M275.33,136.37V152h12.22s1.71.21,1.71-2.36V138.51a4,4,0,0,0-3.21-2.14Z"/><path class="cls-8" d="M275.33,166v15.64h12.22s1.71.22,1.71-2.35V168.15a4,4,0,0,0-3.21-2.14Z"/><path class="cls-8" d="M275.33,195.65V211.3h12.22s1.71.21,1.71-2.36V197.8a4,4,0,0,0-3.21-2.15Z"/><path class="cls-8" d="M239.12,136.37V152H226.9s-1.71.21-1.71-2.36V138.51a4,4,0,0,1,3.21-2.14Z"/><path class="cls-8" d="M239.12,166v15.64H226.9s-1.71.22-1.71-2.35V168.15A4,4,0,0,1,228.4,166Z"/><path class="cls-8" d="M239.12,195.65V211.3H226.9s-1.71.21-1.71-2.36V197.8a4,4,0,0,1,3.21-2.15Z"/><path class="cls-16" d="M239.12,181.65c3.35,3.36,2.81,0,2.81,0V166c0-3.14-2.81,0-2.81,0Z"/><path class="cls-16" d="M239.12,151.77c3.35,3.36,2.81,0,2.81,0V136.13c0-3.14-2.81,0-2.81,0Z"/><path class="cls-16" d="M239.12,211.25c3.35,3.36,2.81,0,2.81,0V195.61c0-3.15-2.81,0-2.81,0Z"/><path class="cls-16" d="M275.33,181.75c-3.36,3.36-2.81,0-2.81,0V166.11c0-3.15,2.81,0,2.81,0Z"/><path class="cls-16" d="M275.33,151.87c-3.36,3.36-2.81,0-2.81,0V136.23c0-3.15,2.81,0,2.81,0Z"/><path class="cls-16" d="M275.33,211.34c-3.36,3.36-2.81,0-2.81,0V195.7c0-3.14,2.81,0,2.81,0Z"/><path class="cls-11" d="M293.4,278.7c-14.14-2.14-70.71,0-70.71,0"/><path class="cls-9" d="M81.83,61.8S96.4,169.66,96.4,176.14c0,4.3,4.72-11.53,4.72-11.53l11.63,31L93.85,64.28Z"/><path class="cls-8" d="M223.69,279.51s8.89-2,9.64-1.29-1.18,8.79-1.18,8.79h-5.46Z"/><path class="cls-8" d="M282.3,278.06s7.39-.91,8.46.16-1.5,8.79-1.5,8.79h-7Z"/><path class="cls-9" d="M418.47,63.94l10.83-1.78a1.69,1.69,0,0,1,1.95,1.89l-13.4,100.88c-1.49,8.94-.71,5.51-3.33.06h0c-1.62-2.91-1.62-2.91-3.22-.36l-8.49,17c-.77,1.9-.38-3.06,0-5.07,6.74-32.24,14.16-96.87,14.28-110.53C417.14,65.05,417.48,64.1,418.47,63.94Z"/><path class="cls-11" d="M242,230.22a4.42,4.42,0,0,1,6.59,0"/><path class="cls-11" d="M265.69,232.37s5.68-4.68,8.22-2.15"/><path class="cls-17" d="M72.62,0,76,61.8S156.75,83.31,242.3,79.2s186.47-6.94,195.46-21.69c4-6.52,3.86-52,3.86-57.51Z"/><path class="cls-18" d="M133.05,0s1.81,42.07,8.71,53c7.77,12.34,231,19.5,234.5,2.57C382.08,27.3,377.8,0,377.8,0Z"/><circle class="cls-8" cx="142.49" cy="20.62" r="3.61"/><circle class="cls-8" cx="149.49" cy="50.62" r="3.61"/><circle class="cls-8" cx="370.28" cy="20.62" r="3.61"/><circle class="cls-8" cx="363.28" cy="50.62" r="3.61"/><polygon class="cls-9" points="97.29 0 91.26 72.13 128.54 0 97.29 0"/><path class="cls-9" d="M52.05,0S34.69,64.58,38.55,68.44,49.3,27.82,77.12,0Z"/><polygon class="cls-9" points="387.13 0 416.36 54.24 415.14 0 387.13 0"/><path class="cls-9" d="M441.62,0s33.43,43.74,33.43,50.62S471.59,2.53,463.47,0C458.56-1.53,441.62,0,441.62,0Z"/><path class="cls-11" d="M389.14,87.09s-66.86-9-90.43,25.71"/><path class="cls-12" d="M391.17,92.89S329.25,87.65,309,120.43l41.08,1.95S373.81,126.63,391.17,92.89Z"/><path class="cls-12" d="M381.43,93.17s5.18,24.27-21.2,27.67-42.77,0-42.77,0-6-4.33-3.61-6.76S321.85,95.11,381.43,93.17Z"/><path class="cls-12" d="M375.43,92.49s2.8,16.89-4.83,24.52-47.05,4.11-47.05,4.11-6.59-9.78-4.62-11.75S329.57,95.89,375.43,92.49Z"/><path class="cls-12" d="M367.73,93.17s4.26,20-14.17,27.26-28-13.63-28-13.63S323.61,99.83,367.73,93.17Z"/><path class="cls-12" d="M360,95.68s3,17.84-12.43,19.55-17.47-12.79-17.47-12.79S348,93.69,360,95.68Z"/><path class="cls-13" d="M350.54,95.68s7.1,5.46-.46,11.89c-6.15,5.23-12.78-3.39-12.78-8.15Z"/><circle class="cls-14" cx="345.58" cy="101.4" r="2.98"/><path class="cls-15" d="M337,76.22s-35.9,16.07-53,16.07l-5.43-3.6,9.6,6.38s51.21-8.3,72.57-21.58Z"/><rect class="cls-8" x="225.08" y="-9.73" width="5.78" height="50.79" rx="1.85"/><rect class="cls-8" x="292.77" y="-9.73" width="5.78" height="50.79" rx="1.85"/><rect class="cls-8" x="270.8" y="-10.01" width="5.78" height="50.79" rx="1.85"/><rect class="cls-8" x="248.23" y="-10.01" width="5.78" height="50.79" rx="1.85"/><polygon class="cls-8" points="186.03 23.75 223.26 19.07 363.28 18.82 341.67 21.29 164.12 26.93 186.03 23.75"/><path class="cls-19" d="M266.69,64.28S343.6,38.81,323.62,0H378.8s3.84,57.44-7.52,59.58C354.56,62.74,331.1,67.8,266.69,64.28Z"/><polygon class="cls-9" points="83.39 169.66 75.39 246.51 89.99 179.37 83.39 169.66"/><path class="cls-5" d="M65.85,0S34.69,64.58,38.55,68.44,49.3,27.82,77.12,0Z"/><polygon class="cls-5" points="387.13 0 397.9 0 416.36 54.24 387.13 0"/><polygon class="cls-5" points="109.9 0 128.54 0 91.26 72.13 109.9 0"/><path class="cls-5" d="M441.62,0s29.71,43,33.43,50.62c2.25,4.66-13.49-47-17.81-51.3S441.62,0,441.62,0Z"/><path class="cls-5" d="M101.12,164.61s-3.83,13.52-4.72,12.63,4.72-16.71,4.72-16.71l11.63,35.12Z"/><polygon class="cls-5" points="402.81 181.66 412.05 158.44 416.64 170.05 412.37 163.42 402.81 181.66"/></g><g id="Layer_1_copy_4" data-name="Layer 1 copy 4"><path class="cls-20" d="M147.76,84.58h33.43s32.14,10.28,34.71,10.28,20.57,27.65,20.57,27.65-22.5,19.28-41.14,23.78S160.62,136,160.62,136s33.75-2.9,45.64-14.79S166.4,80.72,147.76,84.58Z"/><path class="cls-20" d="M367,83.58H333.55S301.4,93.86,298.83,93.86s-20.57,27.65-20.57,27.65,22.5,19.28,41.14,23.78S354.12,135,354.12,135s-33.75-2.9-45.65-14.79S348.33,79.72,367,83.58Z"/></g></svg>